<svg xmlns="http://www.w3.org/2000/svg" viewBox="0 0 128 128">
  <defs>
    <linearGradient id="g" x1="16" x2="112" y1="8" y2="120" gradientUnits="userSpaceOnUse">
      <stop stop-color="#ffd7ea" />
      <stop offset="0.48" stop-color="#c92a7f" />
      <stop offset="1" stop-color="#7e0d53" />
    </linearGradient>
  </defs>
  <rect width="128" height="128" rx="30" fill="#f8f3ee" />
  <path
    d="M65.9 17c-1.2 0-2.4.5-3.2 1.4C51.5 30.7 36 53.3 36 73.5 36 95.2 48.6 110 64 110s28-14.8 28-36.5c0-20.2-15.5-42.8-26.7-55.1-.8-.9-2-1.4-3.4-1.4z"
    fill="url(#g)"
  />
  <path
    d="M63.3 35.8c-6.8 8.4-14.2 21.2-14.2 33.1 0 13.4 6.9 24.1 15.4 24.1 8.4 0 15.2-10.7 15.2-24.1 0-11.7-7.1-24.5-13.8-33.1-.7-.9-1.9-.9-2.6 0z"
    fill="rgba(255,255,255,0.38)"
  />
</svg>
